<?xml version="1.0" encoding="UTF-8" standalone="no"?>
<svg
   xmlns:dc="http://purl.org/dc/elements/1.1/"
   xmlns:cc="http://creativecommons.org/ns#"
   xmlns:rdf="http://www.w3.org/1999/02/22-rdf-syntax-ns#"
   xmlns:svg="http://www.w3.org/2000/svg"
   xmlns="http://www.w3.org/2000/svg"
   xmlns:sodipodi="http://sodipodi.sourceforge.net/DTD/sodipodi-0.dtd"
   xmlns:inkscape="http://www.inkscape.org/namespaces/inkscape"
   version="1.1"
   x="0px"
   y="0px"
   viewBox="0 0 44 44"
   enable-background="new 0 0 595 842"
   xml:space="preserve"
   id="svg104"
   sodipodi:docname="mic2x.svg"
   width="44"
   height="44"
   inkscape:export-filename="/Users/ahmy.yulrizka/Desktop/new-icon/talk1x.png"
   inkscape:export-xdpi="96"
   inkscape:export-ydpi="96"
   inkscape:version="1.0.1 (c497b03c, 2020-09-10)"><metadata
     id="metadata110"><rdf:RDF><cc:Work
         rdf:about=""><dc:format>image/svg+xml</dc:format><dc:type
           rdf:resource="http://purl.org/dc/dcmitype/StillImage" /><dc:title></dc:title></cc:Work></rdf:RDF></metadata><defs
     id="defs108" /><sodipodi:namedview
     pagecolor="#00000f"
     bordercolor="#666666"
     borderopacity="1"
     objecttolerance="10"
     gridtolerance="10"
     guidetolerance="10"
     inkscape:pageopacity="0"
     inkscape:pageshadow="2"
     inkscape:window-width="1680"
     inkscape:window-height="1005"
     id="namedview106"
     showgrid="false"
     inkscape:zoom="12.828643"
     inkscape:cx="22"
     inkscape:cy="22"
     inkscape:window-x="0"
     inkscape:window-y="23"
     inkscape:window-maximized="0"
     inkscape:current-layer="svg104"
     scale-x="2"
     lock-margins="true"
     inkscape:snap-global="true"
     inkscape:snap-bbox="true"
     inkscape:snap-bbox-edge-midpoints="true"
     inkscape:bbox-nodes="false"
     showguides="true"
     inkscape:guide-bbox="true" /><path
     d="m 22.005081,3.9347449 v 0 c 3.833476,0 6.121764,3.1360386 6.121764,6.9695211 v 12.040125 c 0,3.828388 -2.231772,5.726116 -6.065248,5.726146 h -0.05652 c -3.828395,2.8e-5 -6.065248,-1.836146 -6.065248,-5.66963 V 10.960783 c 0,-3.833483 2.231774,-7.0260381 6.065252,-7.0260381 z M 20.43266,22.287121 V 11.601213 c 0,-0.921476 0.14254,-1.7258473 0.447975,-2.3571193 0.244384,-0.509081 0.61092,-0.9112708 1.104768,-1.160749 0.616,-0.3105187 0.469848,-0.9973047 0.16434,-1.6133129 C 21.839249,5.8591187 21.090859,5.6096331 20.479938,5.9151303 19.461762,6.4293135 18.723533,7.2184297 18.239921,8.2162319 17.76139,9.2038807 17.542484,10.374827 17.542484,11.65773 v 10.685907 c 0,0.69239 0.559967,1.252384 1.252324,1.252384 0.682196,0 1.637852,-0.61651 1.637852,-1.3089 z m 2.865535,11.18535 c 2.413126,-0.295278 4.571706,-1.39492 6.205884,-3.029118 1.919278,-1.919284 3.105482,-4.571692 3.105482,-7.504058 0,-0.712744 -0.580362,-1.2931 -1.293118,-1.2931 -0.717832,0 -1.293116,0.580356 -1.293116,1.2931 0,2.219664 -0.896022,4.225468 -2.34693,5.67131 -1.45606,1.450918 -3.456702,2.346924 -5.676398,2.346924 -2.214541,0 -4.220336,-0.896006 -5.671318,-2.346924 -1.450909,-1.450944 -2.346931,-3.456746 -2.346931,-5.67131 0,-0.712744 -0.580363,-1.2931 -1.293116,-1.2931 -0.712752,0 -1.293042,0.580356 -1.293042,1.2931 0,2.932366 1.186203,5.584774 3.105482,7.504058 1.634103,1.634198 3.797765,2.73384 6.20581,3.029118 v 4.006592 h -8.023329 c -0.712753,0 -1.293116,0.580356 -1.293116,1.293094 0,0.712738 0.580363,1.293098 1.293116,1.293098 h 18.632888 c 0.712756,0 1.293118,-0.58036 1.293118,-1.293098 0,-0.712738 -0.580362,-1.293094 -1.293118,-1.293094 h -8.023328 v -4.006592 z"
     clip-rule="evenodd"
     fill="#000000"
     fill-rule="evenodd"
     id="path98"
     style="fill:#000000;stroke-width:0.0736314"
     inkscape:export-xdpi="96"
     inkscape:export-ydpi="96"
     sodipodi:nodetypes="ssssssssssscccccssssccssscscssscccssssssccc" /></svg>
